<?xml version="1.0" standalone="no"?>
<!DOCTYPE svg PUBLIC "-//W3C//DTD SVG 20010904//EN"
 "http://www.w3.org/TR/2001/REC-SVG-20010904/DTD/svg10.dtd">
<svg version="1.0" xmlns="http://www.w3.org/2000/svg"
 width="1536.000000pt" height="1536.000000pt" viewBox="0 0 1536.000000 1536.000000"
 preserveAspectRatio="xMidYMid meet">
<metadata>
Created by potrace 1.11, written by Peter Selinger 2001-2013
</metadata>
<g transform="translate(0.000000,1536.000000) scale(0.100000,-0.100000)"
fill="#000000" stroke="none">
<path d="M7905 14590 c-562 -30 -1103 -161 -1687 -409 -216 -92 -470 -238
-848 -486 -364 -240 -559 -399 -697 -568 -111 -135 -323 -433 -400 -562 -110
-183 -308 -583 -343 -691 -33 -103 -63 -247 -80 -384 -6 -52 -27 -210 -46
-350 -122 -917 -128 -990 -120 -1615 3 -291 9 -571 13 -622 l6 -92 -94 6
c-158 9 -269 -34 -385 -152 -158 -160 -230 -396 -254 -825 -16 -294 9 -592 89
-1065 22 -126 47 -293 56 -370 24 -200 79 -358 185 -530 211 -343 512 -574
747 -575 123 0 274 67 379 168 l40 39 54 -191 c57 -204 198 -643 254 -791 l34
-90 -19 -37 c-16 -32 -19 -60 -19 -195 0 -160 14 -562 26 -750 l6 -103 -27 0
c-51 0 -103 -23 -140 -60 -32 -33 -47 -67 -114 -266 -42 -126 -99 -305 -126
-399 -27 -93 -49 -171 -50 -172 0 -1 -21 5 -45 13 -27 10 -60 13 -82 10 -68
-11 -1353 -581 -2088 -926 -173 -82 -362 -167 -420 -190 -348 -139 -923 -297
-1497 -411 l-213 -42 0 -193 c0 -178 1 -192 17 -188 10 2 144 29 298 59 610
121 1156 274 1556 433 69 28 213 92 320 143 436 206 1165 535 1967 887 l92 41
-6 -27 c-3 -15 -12 -52 -20 -82 -28 -118 -84 -413 -108 -575 -44 -303 -51
-397 -50 -710 0 -309 1 -322 55 -632 l11 -63 195 0 c183 0 194 1 189 18 -4 10
-20 99 -37 198 -28 155 -32 210 -37 413 -7 338 22 629 104 1041 60 300 178
756 267 1030 l24 75 6 -45 c4 -25 16 -133 27 -240 34 -311 84 -583 136 -738
83 -245 488 -891 920 -1467 95 -126 183 -243 196 -258 l23 -28 241 3 241 3
-99 120 c-128 153 -442 573 -585 780 -351 508 -566 887 -612 1076 -71 297
-122 803 -167 1674 l-6 130 106 -140 c396 -520 985 -1152 1281 -1375 50 -37
153 -124 230 -194 157 -142 238 -200 358 -256 215 -101 469 -141 892 -141 389
0 690 38 995 126 232 67 358 136 493 270 139 138 236 259 592 740 210 283 437
576 442 571 4 -3 -57 -819 -122 -1617 -60 -745 -52 -697 -141 -869 -110 -213
-324 -501 -630 -848 l-46 -52 253 2 253 3 109 135 c201 252 381 529 448 692
19 44 38 82 44 83 5 2 27 6 48 10 64 10 109 61 162 183 196 445 353 920 386
1169 15 116 6 320 -20 454 -24 123 -77 294 -125 409 -19 44 -33 80 -31 80 2 0
32 -39 68 -87 162 -219 272 -420 312 -573 87 -336 83 -924 -11 -1540 -33 -220
-61 -354 -139 -670 -54 -218 -71 -273 -96 -307 l-30 -43 213 0 213 0 18 68
c166 618 252 1167 275 1739 l7 182 750 -358 c413 -196 867 -414 1010 -483 143
-69 306 -144 361 -167 213 -86 1179 -439 1248 -457 l26 -6 0 201 c0 123 -4
201 -10 201 -14 0 -614 217 -902 326 -176 67 -364 149 -618 271 -201 97 -709
340 -1130 540 -421 200 -766 366 -768 368 -2 1 -14 57 -27 122 -52 254 -161
483 -364 763 -145 201 -399 471 -506 539 l-42 27 94 139 c217 325 430 823 529
1240 20 83 37 155 39 161 2 6 38 23 82 39 193 68 343 179 432 320 139 220 220
699 287 1695 39 590 -34 985 -216 1171 l-59 61 29 201 c42 292 88 672 100 821
32 412 -23 1751 -85 2049 -88 420 -462 1029 -984 1600 -244 267 -501 471 -818
649 -561 314 -1348 530 -2074 568 -210 11 -233 11 -444 0z m618 -391 c563 -56
1141 -216 1581 -436 315 -158 517 -303 756 -542 186 -186 318 -341 492 -574
277 -372 464 -731 507 -972 14 -75 46 -484 63 -795 6 -129 12 -446 13 -705 0
-455 -1 -477 -27 -683 -46 -356 -51 -392 -57 -392 -13 0 -53 124 -76 231 -30
146 -61 359 -130 899 -67 531 -85 639 -135 850 -41 172 -70 355 -70 441 0 28
-5 70 -11 93 -20 81 -51 105 -277 218 -444 223 -750 329 -1051 363 -179 20
-306 53 -511 130 -351 132 -499 151 -604 77 -46 -32 -85 -102 -86 -154 l0 -37
-92 44 c-93 43 -175 73 -383 138 -61 19 -160 57 -220 85 -281 128 -554 176
-1005 177 -246 0 -271 -2 -349 -23 -249 -68 -650 -251 -876 -399 -132 -87
-282 -208 -344 -280 l-41 -46 -52 17 c-94 29 -160 37 -303 37 -200 0 -278 -20
-353 -94 -43 -43 -74 -107 -87 -185 -5 -29 -31 -78 -80 -152 -80 -120 -127
-228 -146 -335 -16 -91 -7 -304 21 -520 l22 -171 -32 -164 c-17 -91 -67 -336
-111 -544 -75 -350 -80 -382 -69 -422 7 -23 25 -57 40 -76 l28 -33 -29 -32
c-15 -18 -33 -50 -38 -70 -21 -81 -102 -676 -148 -1088 l-8 -70 -33 120 c-18
67 -54 170 -79 230 l-46 110 -8 295 c-17 581 -25 1197 -17 1315 10 153 47 481
103 900 24 182 49 375 55 430 15 131 46 289 69 357 26 76 237 491 315 621 75
124 296 429 384 531 107 123 260 245 542 433 327 218 624 394 782 464 555 245
1034 363 1638 403 89 6 463 -4 573 -15z m-913 -1944 c176 -24 287 -54 431
-118 123 -55 198 -82 419 -152 179 -57 368 -164 439 -248 55 -66 155 -85 232
-44 24 13 77 29 117 35 83 14 135 37 174 79 32 33 58 92 58 129 0 21 3 25 18
19 160 -65 379 -117 562 -136 135 -13 254 -42 423 -103 225 -82 573 -246 581
-274 2 -9 7 -48 11 -87 9 -90 39 -249 75 -395 38 -152 59 -289 125 -815 97
-770 131 -956 210 -1165 45 -118 21 -876 -49 -1558 -8 -80 -9 -142 -4 -168 7
-30 -1 -123 -26 -345 -52 -444 -85 -824 -96 -1090 -10 -264 -27 -376 -90 -596
-116 -414 -323 -845 -539 -1128 -25 -33 -111 -127 -191 -210 -226 -232 -309
-336 -852 -1065 -271 -365 -409 -517 -517 -574 -252 -132 -807 -213 -1280
-187 -430 25 -574 75 -791 277 -121 113 -203 182 -295 250 -100 74 -389 356
-589 574 -443 485 -771 910 -898 1165 -245 489 -583 1720 -674 2450 -49 398 1
1141 143 2098 40 275 39 296 -17 361 l-29 33 24 23 c13 13 31 41 40 64 29 78
213 970 230 1116 4 36 -3 123 -19 253 -15 114 -26 247 -26 315 0 109 2 121 30
180 35 75 74 133 140 208 37 43 52 69 61 111 l13 55 100 -7 c68 -5 103 -11
109 -20 38 -68 113 -115 182 -115 74 0 119 32 299 208 182 179 269 244 481
360 141 77 357 173 505 224 l115 39 255 -4 c161 -3 301 -11 380 -22z m-3972
-3829 c106 -56 196 -278 271 -670 34 -178 51 -210 123 -247 32 -16 54 -20 92
-16 28 2 58 7 66 11 13 5 15 -36 15 -336 0 -225 5 -378 13 -443 20 -155 59
-385 93 -553 l32 -153 -42 -41 c-30 -30 -46 -58 -60 -105 -11 -35 -32 -80 -46
-100 -36 -46 -111 -93 -150 -93 -81 0 -281 176 -389 342 -110 169 -149 271
-166 428 -6 58 -33 240 -60 405 -70 427 -83 552 -83 810 0 404 51 649 155 747
34 32 90 38 136 14z m8431 -341 c22 -133 24 -369 7 -625 -53 -783 -122 -1269
-206 -1446 -30 -62 -84 -120 -149 -157 l-31 -18 0 40 c0 120 55 689 115 1182
30 254 35 280 60 317 22 33 33 76 60 234 55 316 114 577 126 556 4 -7 12 -44
18 -83z m-1072 -4711 c-1 -1 -17 1 -34 3 -29 5 -33 9 -33 36 l0 31 35 -34 c19
-18 34 -35 32 -36z m-85 -671 c13 -51 21 -129 25 -223 4 -123 2 -161 -16 -245
-19 -91 -101 -379 -106 -373 -4 5 70 927 74 923 2 -2 12 -39 23 -82z"/>
<path d="M5655 9363 c-282 -36 -625 -184 -782 -336 -51 -48 -67 -92 -61 -158
13 -131 153 -208 265 -146 22 12 79 48 126 80 249 168 529 222 867 167 300
-49 847 -160 1084 -221 134 -34 221 -7 265 83 55 115 -2 236 -129 272 -192 54
-889 197 -1171 240 -156 25 -359 33 -464 19z"/>
<path d="M10280 9229 c-339 -34 -792 -153 -1141 -301 -149 -63 -179 -82 -206
-138 -62 -121 13 -258 145 -268 52 -4 72 2 217 61 441 180 794 262 1171 274
277 9 521 -24 642 -86 23 -12 43 -21 46 -21 11 0 246 283 241 291 -14 21 -145
84 -241 116 -171 55 -307 74 -559 78 -121 2 -263 -1 -315 -6z"/>
<path d="M6330 8656 c-191 -51 -295 -276 -210 -452 73 -150 250 -221 405 -164
91 34 167 115 196 210 16 54 20 84 15 123 -19 138 -107 243 -236 281 -63 19
-108 19 -170 2z"/>
<path d="M10120 8603 c-29 -11 -66 -38 -106 -77 -70 -70 -98 -135 -98 -226 0
-91 28 -156 98 -226 72 -72 131 -96 232 -95 117 1 225 68 282 176 24 44 27 61
27 145 0 84 -3 101 -27 145 -35 65 -90 118 -158 149 -44 21 -70 26 -130 25
-41 0 -95 -8 -120 -16z"/>
<path d="M8735 8593 c-16 -8 -38 -23 -49 -32 -28 -24 -73 -119 -103 -218 -23
-78 -27 -105 -27 -233 -1 -202 24 -272 114 -317 82 -42 181 -20 236 53 l29 38
-3 140 c-3 149 5 206 43 292 13 29 26 65 30 82 15 69 -42 169 -112 198 -43 18
-121 17 -158 -3z"/>
<path d="M7366 6440 c-107 -13 -139 -25 -180 -70 -30 -33 -56 -91 -56 -125 0
-32 25 -90 52 -121 57 -64 64 -66 306 -58 267 8 358 -2 417 -46 174 -130 339
-179 495 -146 73 15 110 32 255 111 38 21 94 44 125 52 77 18 262 17 325 -2
71 -22 133 -6 190 49 83 79 85 198 6 277 -56 56 -113 69 -307 69 -258 0 -378
-29 -565 -135 -52 -30 -108 -55 -122 -55 -40 0 -85 21 -175 83 -78 53 -152 84
-262 107 -70 15 -400 21 -504 10z"/>
<path d="M9695 5115 c-99 -27 -261 -87 -364 -138 l-106 -51 -145 -4 c-80 -3
-244 1 -366 8 -249 14 -362 6 -574 -37 -150 -31 -203 -29 -810 18 l-394 31
-68 40 c-176 105 -345 103 -415 -3 -75 -113 -13 -260 122 -288 28 -6 100 -36
160 -67 l110 -55 440 -34 c242 -19 512 -37 600 -41 147 -6 170 -4 280 19 224
47 285 51 562 37 276 -14 482 -9 583 15 36 9 117 40 180 70 63 29 171 73 238
96 141 48 181 79 202 154 40 144 -88 269 -235 230z"/>
</g>
</svg>
